<?xml version="1.0" encoding="utf-8"?>
<!-- Generator: Adobe Illustrator 24.3.0, SVG Export Plug-In . SVG Version: 6.00 Build 0)  -->
<svg version="1.1" id="Layer_1" xmlns="http://www.w3.org/2000/svg" xmlns:xlink="http://www.w3.org/1999/xlink" x="0px" y="0px"
	 viewBox="0 0 541.8 180" style="enable-background:new 0 0 541.8 180;" xml:space="preserve">
<style type="text/css">
	.st0{fill:#EED894;stroke:#000000;stroke-width:8;stroke-linecap:round;stroke-linejoin:round;stroke-miterlimit:10;}
	.st1{fill:none;stroke:#000000;stroke-width:8;stroke-linecap:round;stroke-linejoin:round;stroke-miterlimit:10;}
</style>
<g>
	<polygon class="st0" points="540,78.1 318,57.3 318,33 272.1,61.3 227,33.4 227,2.7 116,46.3 5,90 116,133.7 227,177.4 227,146 
		272.1,118.1 318,146.4 318,122.1 540,101.3 	"/>
	<polygon class="st1" points="208.8,141 37.7,90 208.8,39.1 	"/>
	<line class="st1" x1="5" y1="90" x2="37.7" y2="90"/>
	<line class="st1" x1="318" y1="57.3" x2="318" y2="122.1"/>
	<line class="st1" x1="305.2" y1="40.9" x2="305.2" y2="139.2"/>
	<line class="st1" x1="208.8" y1="141" x2="227" y2="177.4"/>
	<line class="st1" x1="208.8" y1="39.1" x2="227" y2="2.7"/>
	<line class="st1" x1="227" y1="33.4" x2="227" y2="146"/>
	<line class="st1" x1="272.1" y1="61.3" x2="272.1" y2="118.1"/>
</g>
</svg>
