<?xml version="1.0" encoding="utf-8"?>
<!-- Generator: Adobe Illustrator 24.3.0, SVG Export Plug-In . SVG Version: 6.00 Build 0)  -->
<svg version="1.1" id="Layer_1" xmlns="http://www.w3.org/2000/svg" xmlns:xlink="http://www.w3.org/1999/xlink" x="0px" y="0px"
	 viewBox="0 0 576.6 576" style="enable-background:new 0 0 576.6 576;" xml:space="preserve">
<style type="text/css">
	.st0{fill:#56ADD3;stroke:#000000;stroke-width:9;stroke-miterlimit:10;}
</style>
<g>
	<path class="st0" d="M143.5,113.1c9-8.7,24.1-17.2,48.7-17.2c-24.8,0-40-8.7-48.9-17.4c-5.2-13.9-16.3-25-30.4-30
		c-8.6-9-17-24.1-17-48.5c0,24.5-8.4,39.5-17,48.5c-14.2,5.1-25.5,16.3-30.6,30.6c-9,8.5-24,16.8-48.3,16.8
		c24.1,0,39.1,8.2,48.1,16.7c5,14.7,16.7,26.3,31.3,31.3c8.5,9.1,16.7,24,16.7,48.1c0-24.3,8.3-39.3,16.8-48.3
		C127.1,138.6,138.4,127.3,143.5,113.1z"/>
	<path class="st0" d="M335.7,113.1c9-8.7,24.1-17.2,48.7-17.2c-24.8,0-40-8.7-48.9-17.4c-5.2-13.9-16.3-25-30.4-30
		c-8.6-9-17-24.1-17-48.5c0,24.5-8.4,39.5-17,48.5c-14.2,5.1-25.5,16.3-30.6,30.6c-9,8.5-24,16.8-48.3,16.8
		c24.1,0,39.1,8.2,48.1,16.7c5,14.7,16.7,26.3,31.3,31.3c8.5,9.1,16.7,24,16.7,48.1c0-24.3,8.3-39.3,16.8-48.3
		C319.3,138.6,330.6,127.3,335.7,113.1z"/>
	<path class="st0" d="M527.9,113.1c9-8.7,24.1-17.2,48.7-17.2c-24.8,0-40-8.7-48.9-17.4c-5.2-13.9-16.3-25-30.4-30
		c-8.6-9-17-24.1-17-48.5c0,24.5-8.4,39.5-17,48.5c-14.2,5.1-25.5,16.3-30.6,30.6c-9,8.5-24,16.8-48.3,16.8
		c24.1,0,39.1,8.2,48.1,16.7c5,14.7,16.7,26.3,31.3,31.3c8.5,9.1,16.7,24,16.7,48.1c0-24.3,8.3-39.3,16.8-48.3
		C511.5,138.6,522.8,127.3,527.9,113.1z"/>
	<path class="st0" d="M143.5,305.1c9-8.7,24.1-17.2,48.7-17.2c-24.8,0-40-8.7-48.9-17.4c-5.2-13.9-16.3-25-30.4-30
		c-8.6-9-17-24.1-17-48.5c0,24.5-8.4,39.5-17,48.5c-14.2,5.1-25.5,16.3-30.6,30.6c-9,8.5-24,16.8-48.3,16.8
		c24.1,0,39.1,8.2,48.1,16.7c5,14.7,16.7,26.3,31.3,31.3c8.5,9.1,16.7,24,16.7,48.1c0-24.3,8.3-39.3,16.8-48.3
		C127.1,330.6,138.4,319.3,143.5,305.1z"/>
	<path class="st0" d="M335.7,305.1c9-8.7,24.1-17.2,48.7-17.2c-24.8,0-40-8.7-48.9-17.4c-5.2-13.9-16.3-25-30.4-30
		c-8.6-9-17-24.1-17-48.5c0,24.5-8.4,39.5-17,48.5c-14.2,5.1-25.5,16.3-30.6,30.6c-9,8.5-24,16.8-48.3,16.8
		c24.1,0,39.1,8.2,48.1,16.7c5,14.7,16.7,26.3,31.3,31.3c8.5,9.1,16.7,24,16.7,48.1c0-24.3,8.3-39.3,16.8-48.3
		C319.3,330.6,330.6,319.3,335.7,305.1z"/>
	<path class="st0" d="M527.9,305.1c9-8.7,24.1-17.2,48.7-17.2c-24.8,0-40-8.7-48.9-17.4c-5.2-13.9-16.3-25-30.4-30
		c-8.6-9-17-24.1-17-48.5c0,24.5-8.4,39.5-17,48.5c-14.2,5.1-25.5,16.3-30.6,30.6c-9,8.5-24,16.8-48.3,16.8
		c24.1,0,39.1,8.2,48.1,16.7c5,14.7,16.7,26.3,31.3,31.3c8.5,9.1,16.7,24,16.7,48.1c0-24.3,8.3-39.3,16.8-48.3
		C511.5,330.6,522.8,319.3,527.9,305.1z"/>
	<path class="st0" d="M143.5,497.1c9-8.7,24.1-17.2,48.7-17.2c-24.8,0-40-8.7-48.9-17.4c-5.2-13.9-16.3-25-30.4-30
		c-8.6-9-17-24.1-17-48.5c0,24.5-8.4,39.5-17,48.5c-14.2,5.1-25.5,16.3-30.6,30.6c-9,8.5-24,16.8-48.3,16.8
		c24.1,0,39.1,8.2,48.1,16.7c5,14.7,16.7,26.3,31.3,31.3c8.5,9.1,16.7,24,16.7,48.1c0-24.3,8.3-39.3,16.8-48.3
		C127.1,522.6,138.4,511.3,143.5,497.1z"/>
	<path class="st0" d="M335.7,497.1c9-8.7,24.1-17.2,48.7-17.2c-24.8,0-40-8.7-48.9-17.4c-5.2-13.9-16.3-25-30.4-30
		c-8.6-9-17-24.1-17-48.5c0,24.5-8.4,39.5-17,48.5c-14.2,5.1-25.5,16.3-30.6,30.6c-9,8.5-24,16.8-48.3,16.8
		c24.1,0,39.1,8.2,48.1,16.7c5,14.7,16.7,26.3,31.3,31.3c8.5,9.1,16.7,24,16.7,48.1c0-24.3,8.3-39.3,16.8-48.3
		C319.3,522.6,330.6,511.3,335.7,497.1z"/>
	<path class="st0" d="M527.9,497.1c9-8.7,24.1-17.2,48.7-17.2c-24.8,0-40-8.7-48.9-17.4c-5.2-13.9-16.3-25-30.4-30
		c-8.6-9-17-24.1-17-48.5c0,24.5-8.4,39.5-17,48.5c-14.2,5.1-25.5,16.3-30.6,30.6c-9,8.5-24,16.8-48.3,16.8
		c24.1,0,39.1,8.2,48.1,16.7c5,14.7,16.7,26.3,31.3,31.3c8.5,9.1,16.7,24,16.7,48.1c0-24.3,8.3-39.3,16.8-48.3
		C511.5,522.6,522.8,511.3,527.9,497.1z"/>
</g>
<g>
	<path d="M549.3,9c10.1,0,18.3,8.2,18.3,18.3v522c0,10.1-8.2,18.3-18.3,18.3h-522c-10.1,0-18.3-8.2-18.3-18.3v-522
		C9,17.2,17.2,9,27.3,9H549.3 M549.3,0h-522C12.2,0,0,12.2,0,27.3v522c0,15.1,12.2,27.3,27.3,27.3h522c15.1,0,27.3-12.2,27.3-27.3
		v-522C576.6,12.2,564.4,0,549.3,0L549.3,0z"/>
</g>
</svg>
