<?xml version="1.0" encoding="utf-8"?>
<!-- Generator: Adobe Illustrator 24.3.0, SVG Export Plug-In . SVG Version: 6.00 Build 0)  -->
<svg version="1.1" id="Layer_1" xmlns="http://www.w3.org/2000/svg" xmlns:xlink="http://www.w3.org/1999/xlink" x="0px" y="0px"
	 viewBox="0 0 315.7 124.9" style="enable-background:new 0 0 315.7 124.9;" xml:space="preserve">
<style type="text/css">
	
		.st0{fill:#EED894;stroke:#000000;stroke-width:8;stroke-linecap:round;stroke-linejoin:round;stroke-miterlimit:10;stroke-dasharray:12;}
	.st1{fill:#EED894;stroke:#000000;stroke-width:8;stroke-linecap:round;stroke-linejoin:round;stroke-miterlimit:10;}
	.st2{fill:#EED894;}
</style>
<g>
	<g>
		<path class="st2" d="M40.9,56.6l24.4-24.4l8.1,8.1L49,64.6L73.3,89l-8.3,8.3L40.7,72.9L16.3,97.3l-8.1-8.1l24.4-24.4L8,40.2
			l8.3-8.3L40.9,56.6z"/>
		<path d="M16.3,32l24.6,24.6l24.4-24.4l8.1,8.1L49,64.6L73.3,89l-8.3,8.3L40.7,72.9L16.3,97.3l-8.1-8.1l24.4-24.4L8,40.2L16.3,32
			 M16.3,24c-2,0-4.1,0.8-5.7,2.3l-8.3,8.3C0.8,36.1,0,38.1,0,40.2c0,2.1,0.8,4.2,2.3,5.7l18.9,18.9L2.5,83.6
			c-1.5,1.5-2.3,3.5-2.3,5.7c0,2.1,0.8,4.2,2.3,5.7l8.1,8.1c1.6,1.6,3.6,2.3,5.7,2.3c2,0,4.1-0.8,5.7-2.3l18.8-18.8l18.7,18.7
			c1.5,1.5,3.5,2.3,5.7,2.3c2.1,0,4.2-0.8,5.7-2.3l8.3-8.3c3.1-3.1,3.1-8.2,0-11.3L60.3,64.6L79,45.9c1.5-1.5,2.3-3.5,2.3-5.7
			c0-2.1-0.8-4.2-2.3-5.7L71,26.5c-1.6-1.6-3.6-2.3-5.7-2.3c-2,0-4.1,0.8-5.7,2.3L40.9,45.2L21.9,26.3C20.4,24.7,18.3,24,16.3,24
			L16.3,24z"/>
	</g>
	<g>
		<path class="st2" d="M155.7,8v6.8c-5.2,0.2-18.4,0.4-19.3,0.6c-1,0.2-1.7,0.5-2.1,0.9c-0.4,0.3-0.7,0.8-0.9,1.3
			c-0.4,0.9-0.6,2.6-0.8,5.1c-0.1,1.3-0.2,3.9-0.2,7.6c-0.2,12.8-0.3,19.6-0.3,20.6v31.4l0.2,14.2c0,5.3,0.3,8.8,0.8,10.4
			c0.2,0.7,0.6,1.3,1.1,1.7s1.3,0.7,2.3,0.9c1.1,0.2,14.1,0.4,19.2,0.5v6.9c-8.5-0.3-27.5-0.5-37.1-0.5c-8.4,0-25.8,0.2-32.3,0.5
			V110c5.4-0.2,18.5-0.4,19.3-0.5c1.1-0.2,1.8-0.5,2.2-0.9c0.4-0.4,0.6-0.8,0.7-1.2c0.2-0.6,0.4-3.1,0.6-7.3
			c0.4-6.2,0.6-12,0.6-17.3V50.3c0-10.3-0.1-17-0.2-19.9c-0.3-6.6-0.6-10.7-0.9-12.4c-0.2-0.7-0.4-1.2-0.7-1.6
			c-0.3-0.4-1-0.7-1.9-0.9c-0.9-0.2-14.2-0.5-19.8-0.7V8c6.5,0.3,24,0.5,32.5,0.5C128.3,8.5,147.3,8.3,155.7,8z"/>
		<path d="M155.7,8v6.8c-5.2,0.2-18.4,0.4-19.3,0.6c-1,0.2-1.7,0.5-2.1,0.9c-0.4,0.3-0.7,0.8-0.9,1.3c-0.4,0.9-0.6,2.6-0.8,5.1
			c-0.1,1.3-0.2,3.9-0.2,7.6c-0.2,12.8-0.3,19.6-0.3,20.6v31.4l0.2,14.2c0,5.3,0.3,8.8,0.8,10.4c0.2,0.7,0.6,1.3,1.1,1.7
			c0.5,0.4,1.3,0.7,2.3,0.9c1.1,0.2,14.1,0.4,19.2,0.5v6.9c-8.5-0.3-27.5-0.5-37.1-0.5c-8.4,0-25.8,0.2-32.3,0.5V110
			c5.4-0.2,18.5-0.4,19.3-0.5c1.1-0.2,1.8-0.5,2.2-0.9c0.4-0.4,0.6-0.8,0.7-1.2c0.2-0.6,0.4-3.1,0.6-7.3c0.4-6.2,0.6-12,0.6-17.3
			V50.3c0-10.3-0.1-17-0.2-19.9c-0.3-6.6-0.6-10.7-0.9-12.4c-0.2-0.7-0.4-1.2-0.7-1.6c-0.3-0.4-1-0.7-1.9-0.9
			c-0.9-0.2-14.2-0.5-19.8-0.7V8c6.5,0.3,24,0.5,32.5,0.5C128.3,8.5,147.3,8.3,155.7,8 M86.3,0c-2.1,0-4,0.8-5.5,2.2
			c-1.6,1.5-2.5,3.6-2.5,5.8v6.8c0,4.3,3.4,7.8,7.7,8c2.1,0.1,5,0.2,8.1,0.2c2.2,0.1,4.9,0.1,7.2,0.2c0.1,1.6,0.3,4,0.4,7.4
			c0.1,2.8,0.2,9.4,0.2,19.6v32.5c0,5.1-0.2,10.7-0.6,16.7c0,0.8-0.1,1.5-0.1,2.1c-1.6,0-3.4,0.1-5,0.1c-3.8,0.1-7.7,0.2-10.1,0.3
			c-4.3,0.2-7.7,3.7-7.7,8v6.9c0,2.2,0.9,4.3,2.5,5.8c1.5,1.4,3.5,2.2,5.5,2.2c0.1,0,0.3,0,0.4,0c6.4-0.3,23.9-0.5,32-0.5
			c9.9,0,28.7,0.2,36.8,0.5c0.1,0,0.2,0,0.3,0c2.1,0,4.1-0.8,5.6-2.2c1.6-1.5,2.4-3.6,2.4-5.8V110c0-4.4-3.5-7.9-7.8-8
			c-1.1,0-2.5,0-4.1-0.1c-2.9-0.1-8-0.1-11.3-0.2c-0.1-1.2-0.1-2.9-0.1-5.2c0,0,0-0.1,0-0.1l-0.2-14.2V50.9c0-0.5,0-3.9,0.3-20.5
			c0.1-4.4,0.1-6.3,0.2-7.1c0,0,0,0,0,0c2.6-0.1,6.3-0.2,8.8-0.2c2.5-0.1,4.9-0.1,6.5-0.2c4.3-0.1,7.8-3.7,7.8-8V8
			c0-2.2-0.9-4.3-2.4-5.8c-1.5-1.4-3.5-2.2-5.6-2.2c-0.1,0-0.2,0-0.3,0c-8.1,0.3-26.8,0.5-36.6,0.5c-8.1,0-25.7-0.2-32.1-0.5
			C86.6,0,86.4,0,86.3,0L86.3,0z"/>
	</g>
	<g>
		<path class="st2" d="M231.7,8v6.8c-5.2,0.2-18.4,0.4-19.3,0.6c-1,0.2-1.7,0.5-2.1,0.9c-0.4,0.3-0.7,0.8-0.9,1.3
			c-0.4,0.9-0.6,2.6-0.8,5.1c-0.1,1.3-0.2,3.9-0.2,7.6c-0.2,12.8-0.3,19.6-0.3,20.6v31.4l0.2,14.2c0,5.3,0.3,8.8,0.8,10.4
			c0.2,0.7,0.6,1.3,1.1,1.7s1.3,0.7,2.3,0.9c1.1,0.2,14.1,0.4,19.2,0.5v6.9c-8.5-0.3-27.5-0.5-37.1-0.5c-8.4,0-25.8,0.2-32.3,0.5
			V110c5.4-0.2,18.5-0.4,19.3-0.5c1.1-0.2,1.8-0.5,2.2-0.9c0.4-0.4,0.6-0.8,0.7-1.2c0.2-0.6,0.4-3.1,0.6-7.3
			c0.4-6.2,0.6-12,0.6-17.3V50.3c0-10.3-0.1-17-0.2-19.9c-0.3-6.6-0.6-10.7-0.9-12.4c-0.2-0.7-0.4-1.2-0.7-1.6
			c-0.3-0.4-1-0.7-1.9-0.9c-0.9-0.2-14.2-0.5-19.8-0.7V8c6.5,0.3,24,0.5,32.5,0.5C204.3,8.5,223.3,8.3,231.7,8z"/>
		<path d="M231.7,8v6.8c-5.2,0.2-18.4,0.4-19.3,0.6c-1,0.2-1.7,0.5-2.1,0.9c-0.4,0.3-0.7,0.8-0.9,1.3c-0.4,0.9-0.6,2.6-0.8,5.1
			c-0.1,1.3-0.2,3.9-0.2,7.6c-0.2,12.8-0.3,19.6-0.3,20.6v31.4l0.2,14.2c0,5.3,0.3,8.8,0.8,10.4c0.2,0.7,0.6,1.3,1.1,1.7
			c0.5,0.4,1.3,0.7,2.3,0.9c1.1,0.2,14.1,0.4,19.2,0.5v6.9c-8.5-0.3-27.5-0.5-37.1-0.5c-8.4,0-25.8,0.2-32.3,0.5V110
			c5.4-0.2,18.5-0.4,19.3-0.5c1.1-0.2,1.8-0.5,2.2-0.9c0.4-0.4,0.6-0.8,0.7-1.2c0.2-0.6,0.4-3.1,0.6-7.3c0.4-6.2,0.6-12,0.6-17.3
			V50.3c0-10.3-0.1-17-0.2-19.9c-0.3-6.6-0.6-10.7-0.9-12.4c-0.2-0.7-0.4-1.2-0.7-1.6c-0.3-0.4-1-0.7-1.9-0.9
			c-0.9-0.2-14.2-0.5-19.8-0.7V8c6.5,0.3,24,0.5,32.5,0.5C204.3,8.5,223.3,8.3,231.7,8 M162.3,0c-2.1,0-4,0.8-5.5,2.2
			c-1.6,1.5-2.5,3.6-2.5,5.8v6.8c0,4.3,3.4,7.8,7.7,8c2.1,0.1,5,0.2,8.1,0.2c2.2,0.1,4.9,0.1,7.2,0.2c0.1,1.6,0.3,4,0.4,7.4
			c0.1,2.8,0.2,9.4,0.2,19.6v32.5c0,5.1-0.2,10.7-0.6,16.7c0,0.8-0.1,1.5-0.1,2.1c-1.6,0-3.4,0.1-5,0.1c-3.8,0.1-7.7,0.2-10.1,0.3
			c-4.3,0.2-7.7,3.7-7.7,8v6.9c0,2.2,0.9,4.3,2.5,5.8c1.5,1.4,3.5,2.2,5.5,2.2c0.1,0,0.3,0,0.4,0c6.4-0.3,23.9-0.5,32-0.5
			c9.9,0,28.7,0.2,36.8,0.5c0.1,0,0.2,0,0.3,0c2.1,0,4.1-0.8,5.6-2.2c1.6-1.5,2.4-3.6,2.4-5.8V110c0-4.4-3.5-7.9-7.8-8
			c-1.1,0-2.5,0-4.1-0.1c-2.9-0.1-8-0.1-11.3-0.2c-0.1-1.2-0.1-2.9-0.1-5.2c0,0,0-0.1,0-0.1l-0.2-14.2V50.9c0-0.5,0-3.9,0.3-20.5
			c0.1-4.4,0.1-6.3,0.2-7.1c0,0,0,0,0,0c2.6-0.1,6.3-0.2,8.8-0.2c2.5-0.1,4.9-0.1,6.5-0.2c4.3-0.1,7.8-3.7,7.8-8V8
			c0-2.2-0.9-4.3-2.4-5.8c-1.5-1.4-3.5-2.2-5.6-2.2c-0.1,0-0.2,0-0.3,0c-8.1,0.3-26.8,0.5-36.6,0.5c-8.1,0-25.7-0.2-32.1-0.5
			C162.6,0,162.4,0,162.3,0L162.3,0z"/>
	</g>
</g>
</svg>
