<svg enable-background="new 0 0 315.7 124.9" viewBox="0 0 315.7 124.9" xmlns="http://www.w3.org/2000/svg"><path d="m40.9 56.6 24.4-24.4 8.1 8.1-24.4 24.3 24.3 24.4-8.3 8.3-24.3-24.4-24.4 24.4-8.1-8.1 24.4-24.4-24.6-24.6 8.3-8.3z" fill="#eed894"/><path d="m16.3 32 24.6 24.6 24.4-24.4 8.1 8.1-24.4 24.3 24.3 24.4-8.3 8.3-24.3-24.4-24.4 24.4-8.1-8.1 24.4-24.4-24.6-24.6zm0-8c-2 0-4.1.8-5.7 2.3l-8.3 8.3c-1.5 1.5-2.3 3.5-2.3 5.6s.8 4.2 2.3 5.7l18.9 18.9-18.7 18.8c-1.5 1.5-2.3 3.5-2.3 5.7 0 2.1.8 4.2 2.3 5.7l8.1 8.1c1.6 1.6 3.6 2.3 5.7 2.3 2 0 4.1-.8 5.7-2.3l18.8-18.8 18.7 18.7c1.5 1.5 3.5 2.3 5.7 2.3 2.1 0 4.2-.8 5.7-2.3l8.3-8.3c3.1-3.1 3.1-8.2 0-11.3l-18.9-18.8 18.7-18.7c1.5-1.5 2.3-3.5 2.3-5.7 0-2.1-.8-4.2-2.3-5.7l-8-8c-1.6-1.6-3.6-2.3-5.7-2.3-2 0-4.1.8-5.7 2.3l-18.7 18.7-19-18.9c-1.5-1.6-3.6-2.3-5.6-2.3z"/><path d="m155.7 8v6.8c-5.2.2-18.4.4-19.3.6-1 .2-1.7.5-2.1.9-.4.3-.7.8-.9 1.3-.4.9-.6 2.6-.8 5.1-.1 1.3-.2 3.9-.2 7.6-.2 12.8-.3 19.6-.3 20.6v31.4l.2 14.2c0 5.3.3 8.8.8 10.4.2.7.6 1.3 1.1 1.7s1.3.7 2.3.9c1.1.2 14.1.4 19.2.5v6.9c-8.5-.3-27.5-.5-37.1-.5-8.4 0-25.8.2-32.3.5v-6.9c5.4-.2 18.5-.4 19.3-.5 1.1-.2 1.8-.5 2.2-.9s.6-.8.7-1.2c.2-.6.4-3.1.6-7.3.4-6.2.6-12 .6-17.3v-32.5c0-10.3-.1-17-.2-19.9-.3-6.6-.6-10.7-.9-12.4-.2-.7-.4-1.2-.7-1.6s-1-.7-1.9-.9-14.2-.5-19.8-.7v-6.8c6.5.3 24 .5 32.5.5 9.6 0 28.6-.2 37-.5z" fill="#eed894"/><path d="m155.7 8v6.8c-5.2.2-18.4.4-19.3.6-1 .2-1.7.5-2.1.9-.4.3-.7.8-.9 1.3-.4.9-.6 2.6-.8 5.1-.1 1.3-.2 3.9-.2 7.6-.2 12.8-.3 19.6-.3 20.6v31.4l.2 14.2c0 5.3.3 8.8.8 10.4.2.7.6 1.3 1.1 1.7s1.3.7 2.3.9c1.1.2 14.1.4 19.2.5v6.9c-8.5-.3-27.5-.5-37.1-.5-8.4 0-25.8.2-32.3.5v-6.9c5.4-.2 18.5-.4 19.3-.5 1.1-.2 1.8-.5 2.2-.9s.6-.8.7-1.2c.2-.6.4-3.1.6-7.3.4-6.2.6-12 .6-17.3v-32.5c0-10.3-.1-17-.2-19.9-.3-6.6-.6-10.7-.9-12.4-.2-.7-.4-1.2-.7-1.6s-1-.7-1.9-.9-14.2-.5-19.8-.7v-6.8c6.5.3 24 .5 32.5.5 9.6 0 28.6-.2 37-.5m-69.4-8c-2.1 0-4 .8-5.5 2.2-1.6 1.5-2.5 3.6-2.5 5.8v6.8c0 4.3 3.4 7.8 7.7 8 2.1.1 5 .2 8.1.2 2.2.1 4.9.1 7.2.2.1 1.6.3 4 .4 7.4.1 2.8.2 9.4.2 19.6v32.5c0 5.1-.2 10.7-.6 16.7 0 .8-.1 1.5-.1 2.1-1.6 0-3.4.1-5 .1-3.8.1-7.7.2-10.1.3-4.3.2-7.7 3.7-7.7 8v6.9c0 2.2.9 4.3 2.5 5.8 1.5 1.4 3.5 2.2 5.5 2.2h.4c6.4-.3 23.9-.5 32-.5 9.9 0 28.7.2 36.8.5h.3c2.1 0 4.1-.8 5.6-2.2 1.6-1.5 2.4-3.6 2.4-5.8v-6.8c0-4.4-3.5-7.9-7.8-8-1.1 0-2.5 0-4.1-.1-2.9-.1-8-.1-11.3-.2-.1-1.2-.1-2.9-.1-5.2v-.1l-.2-14.2v-31.3c0-.5 0-3.9.3-20.5.1-4.4.1-6.3.2-7.1 2.6-.1 6.3-.2 8.8-.2 2.5-.1 4.9-.1 6.5-.2 4.3-.1 7.8-3.7 7.8-8v-6.9c0-2.2-.9-4.3-2.4-5.8-1.5-1.4-3.5-2.2-5.6-2.2-.1 0-.2 0-.3 0-8.1.3-26.8.5-36.6.5-8.1 0-25.7-.2-32.1-.5-.4 0-.6 0-.7 0z"/><path d="m231.7 8v6.8c-5.2.2-18.4.4-19.3.6-1 .2-1.7.5-2.1.9-.4.3-.7.8-.9 1.3-.4.9-.6 2.6-.8 5.1-.1 1.3-.2 3.9-.2 7.6-.2 12.8-.3 19.6-.3 20.6v31.4l.2 14.2c0 5.3.3 8.8.8 10.4.2.7.6 1.3 1.1 1.7s1.3.7 2.3.9c1.1.2 14.1.4 19.2.5v6.9c-8.5-.3-27.5-.5-37.1-.5-8.4 0-25.8.2-32.3.5v-6.9c5.4-.2 18.5-.4 19.3-.5 1.1-.2 1.8-.5 2.2-.9s.6-.8.7-1.2c.2-.6.4-3.1.6-7.3.4-6.2.6-12 .6-17.3v-32.5c0-10.3-.1-17-.2-19.9-.3-6.6-.6-10.7-.9-12.4-.2-.7-.4-1.2-.7-1.6s-1-.7-1.9-.9-14.2-.5-19.8-.7v-6.8c6.5.3 24 .5 32.5.5 9.6 0 28.6-.2 37-.5z" fill="#eed894"/><path d="m231.7 8v6.8c-5.2.2-18.4.4-19.3.6-1 .2-1.7.5-2.1.9-.4.3-.7.8-.9 1.3-.4.9-.6 2.6-.8 5.1-.1 1.3-.2 3.9-.2 7.6-.2 12.8-.3 19.6-.3 20.6v31.4l.2 14.2c0 5.3.3 8.8.8 10.4.2.7.6 1.3 1.1 1.7s1.3.7 2.3.9c1.1.2 14.1.4 19.2.5v6.9c-8.5-.3-27.5-.5-37.1-.5-8.4 0-25.8.2-32.3.5v-6.9c5.4-.2 18.5-.4 19.3-.5 1.1-.2 1.8-.5 2.2-.9s.6-.8.7-1.2c.2-.6.4-3.1.6-7.3.4-6.2.6-12 .6-17.3v-32.5c0-10.3-.1-17-.2-19.9-.3-6.6-.6-10.7-.9-12.4-.2-.7-.4-1.2-.7-1.6s-1-.7-1.9-.9-14.2-.5-19.8-.7v-6.8c6.5.3 24 .5 32.5.5 9.6 0 28.6-.2 37-.5m-69.4-8c-2.1 0-4 .8-5.5 2.2-1.6 1.5-2.5 3.6-2.5 5.8v6.8c0 4.3 3.4 7.8 7.7 8 2.1.1 5 .2 8.1.2 2.2.1 4.9.1 7.2.2.1 1.6.3 4 .4 7.4.1 2.8.2 9.4.2 19.6v32.5c0 5.1-.2 10.7-.6 16.7 0 .8-.1 1.5-.1 2.1-1.6 0-3.4.1-5 .1-3.8.1-7.7.2-10.1.3-4.3.2-7.7 3.7-7.7 8v6.9c0 2.2.9 4.3 2.5 5.8 1.5 1.4 3.5 2.2 5.5 2.2h.4c6.4-.3 23.9-.5 32-.5 9.9 0 28.7.2 36.8.5h.3c2.1 0 4.1-.8 5.6-2.2 1.6-1.5 2.4-3.6 2.4-5.8v-6.8c0-4.4-3.5-7.9-7.8-8-1.1 0-2.5 0-4.1-.1-2.9-.1-8-.1-11.3-.2-.1-1.2-.1-2.9-.1-5.2v-.1l-.2-14.2v-31.3c0-.5 0-3.9.3-20.5.1-4.4.1-6.3.2-7.1 2.6-.1 6.3-.2 8.8-.2 2.5-.1 4.9-.1 6.5-.2 4.3-.1 7.8-3.7 7.8-8v-6.9c0-2.2-.9-4.3-2.4-5.8-1.5-1.4-3.5-2.2-5.6-2.2-.1 0-.2 0-.3 0-8.1.3-26.8.5-36.6.5-8.1 0-25.7-.2-32.1-.5-.4 0-.6 0-.7 0z"/></svg>